<svg width="225" height="117" viewBox="0 0 225 117" fill="none" xmlns="http://www.w3.org/2000/svg">
<path d="M114.03 12.5216V12.5098C114.027 12.1064 113.865 11.7202 113.581 11.4352L113.581 11.4351C113.294 11.1469 112.905 10.985 112.5 10.984C112.094 10.9838 111.705 11.145 111.418 11.4331L111.418 11.4333C111.13 11.7212 110.968 12.1125 110.968 12.5207L114.03 12.5216ZM114.03 12.5216C114.03 12.9298 113.868 13.3212 113.581 13.6095M114.03 12.5216L113.581 13.6095M113.581 13.6095C113.294 13.8975 112.904 14.0591 112.499 14.0592L113.581 13.6095ZM90.0045 28.3716H90.0046H91.9662V47.9854V47.9858C91.967 48.8907 92.3257 49.7584 92.9638 50.3985C93.6018 51.0387 94.4673 51.3992 95.3704 51.4H95.3708H129.629H129.63C130.533 51.3992 131.398 51.0387 132.036 50.3985C132.674 49.7584 133.033 48.8907 133.034 47.9858V47.9854V28.3716H134.995H134.996C135.898 28.3704 136.763 28.0108 137.401 27.3714L137.401 27.3713C138.039 26.732 138.398 25.8653 138.4 24.9613V24.9604V17.4721V17.4717C138.399 16.5668 138.04 15.6991 137.402 15.059C136.764 14.4187 135.899 14.0587 134.996 14.0575H134.995H128.532C129.404 13.0607 130.06 11.8891 130.454 10.6163C131.199 8.37579 130.87 5.91578 129.565 3.95004L129.565 3.94998L129.559 3.94193C128.053 1.79075 125.574 0.537325 122.954 0.602416C120.187 0.557268 117.563 1.83082 115.882 4.03463L115.881 4.03458L115.876 4.04141C115.03 5.20061 114.3 6.44069 113.697 7.7432C112.912 7.52805 112.083 7.52804 111.298 7.74318C110.696 6.44148 109.966 5.20269 109.12 4.04485L109.12 4.0448L109.115 4.03857C107.434 1.83155 104.809 0.556099 102.04 0.602416C99.429 0.539551 96.9595 1.79054 95.4598 3.93517L95.4597 3.93512L95.4555 3.94146C94.1364 5.90655 93.7992 8.37377 94.5423 10.6221C94.9434 11.8933 95.604 13.0627 96.4782 14.0575L90.0046 14.0575L90.0041 14.0575C89.1012 14.0587 88.2358 14.4187 87.5976 15.059C86.9596 15.6991 86.6008 16.5668 86.6 17.4717V17.4721L86.6 24.9604L86.6 24.9613C86.602 25.8653 86.9612 26.732 87.5988 27.3713L87.5989 27.3714C88.237 28.0108 89.1019 28.3704 90.004 28.3716L90.0045 28.0463V28.3716ZM95.3594 47.9854V28.3716H110.81V47.998L95.3719 47.998C95.3718 47.998 95.3717 47.998 95.3716 47.998C95.3695 47.998 95.3684 47.9976 95.3676 47.9972C95.3664 47.9968 95.3649 47.9958 95.3634 47.9943C95.3626 47.9935 95.3619 47.9926 95.3613 47.9917C95.3609 47.991 95.3605 47.9904 95.3603 47.9897C95.3601 47.9893 95.3599 47.9887 95.3597 47.9881C95.3596 47.9876 95.3595 47.987 95.3594 47.9863V47.9854ZM129.628 47.9981H114.197V28.3718H129.647L129.641 47.8585L129.641 47.9841C129.641 47.987 129.64 47.9886 129.64 47.9899C129.64 47.9902 129.639 47.9907 129.639 47.9911C129.639 47.9922 129.638 47.9934 129.637 47.9945C129.635 47.996 129.634 47.9969 129.632 47.9974C129.632 47.9977 129.63 47.9981 129.628 47.9981ZM135 17.4599C135 17.46 135 17.46 135 17.4601V17.4722L135 24.9605C135 24.9688 134.994 24.9733 134.989 24.9733H114.197V17.4595H116.533H116.905H117.462L134.996 17.4595L134.997 17.4595C134.998 17.4595 134.999 17.4596 135 17.4599ZM118.595 6.07631C119.639 4.73944 121.249 3.97457 122.94 4.01286L122.952 4.01312L122.964 4.01272C124.46 3.96019 125.883 4.66116 126.758 5.8814C127.471 6.98347 127.639 8.35435 127.213 9.59766L127.21 9.60701L127.207 9.61651C126.733 11.262 125.538 12.6008 123.961 13.2546C121.875 13.8906 119.695 14.1653 117.517 14.0665L117.508 14.0661H117.499H117.162C117.384 13.407 117.462 12.7052 117.387 12.0088C117.299 11.1854 117 10.4 116.522 9.72759C117.081 8.43992 117.776 7.2155 118.595 6.07631ZM107.189 14.0541C105.104 14.1303 103.021 13.8565 101.025 13.2451C99.4529 12.5898 98.2601 11.2543 97.7839 9.61236L97.7817 9.60475L97.7792 9.59723C97.362 8.34613 97.5349 6.97264 98.2493 5.86564C99.1192 4.65058 100.537 3.95227 102.026 4.00408L102.037 4.00448L102.049 4.00422C103.747 3.96611 105.364 4.73768 106.406 6.08455C107.221 7.21751 107.912 8.43498 108.468 9.71579C107.99 10.3885 107.693 11.174 107.605 11.9976C107.531 12.6938 107.609 13.3952 107.831 14.0538H107.204H107.197L107.189 14.0541ZM89.9943 17.472L89.9943 17.4693C89.9943 17.467 89.9953 17.4642 89.9973 17.4622L89.7207 17.1864L89.9973 17.4622C89.9993 17.4602 90.0016 17.4593 90.0043 17.4593H90.0056H107.536H108.091H108.462H110.804V24.9698H90.0055C90.0036 24.9698 90.0026 24.9694 90.0018 24.9691C90.0009 24.9687 89.9995 24.9679 89.9981 24.9665C89.9966 24.9651 89.9957 24.9635 89.9951 24.9622C89.9947 24.9612 89.9943 24.9599 89.9942 24.9577L89.9943 17.472ZM112.499 14.0592C112.093 14.0589 111.703 13.897 111.416 13.6089C111.129 13.3205 110.968 12.9293 110.968 12.5208L112.499 14.0592Z" fill="#144480" stroke="#144480" stroke-width="0.8"/>
<path d="M16.1726 104.624C13.8686 104.624 11.8206 104.24 10.0286 103.472C8.26863 102.672 6.78063 101.552 5.56463 100.112C4.34863 98.64 3.43663 96.912 2.82863 94.928C2.22063 92.912 1.91663 90.704 1.91663 88.304C1.91663 85.808 2.23663 83.552 2.87663 81.536C3.51663 79.488 4.44463 77.728 5.66063 76.256C6.87663 74.784 8.34863 73.664 10.0766 72.896C11.8366 72.096 13.8206 71.696 16.0286 71.696C17.8846 71.696 19.5326 71.968 20.9726 72.512C22.4126 73.056 23.6286 73.824 24.6206 74.816C25.6446 75.808 26.4126 76.992 26.9246 78.368C27.4366 79.744 27.6926 81.248 27.6926 82.88L23.6126 83.504C23.5486 81.84 23.1966 80.416 22.5566 79.232C21.9166 78.048 21.0366 77.152 19.9166 76.544C18.7966 75.904 17.4686 75.584 15.9326 75.584C14.5886 75.584 13.3406 75.84 12.1886 76.352C11.0686 76.864 10.0766 77.632 9.21263 78.656C8.34863 79.68 7.67663 80.992 7.19662 82.592C6.71662 84.16 6.47662 86 6.47662 88.112C6.47662 90.8 6.86063 93.088 7.62863 94.976C8.42863 96.864 9.56463 98.304 11.0366 99.296C12.5086 100.288 14.2686 100.784 16.3166 100.784C18.1406 100.784 19.6606 100.384 20.8766 99.584C22.1246 98.784 23.0526 97.632 23.6606 96.128C24.3006 94.624 24.5886 92.816 24.5246 90.704L28.7006 91.28C28.7966 93.168 28.5886 94.928 28.0766 96.56C27.5966 98.16 26.8286 99.568 25.7726 100.784C24.7486 102 23.4366 102.944 21.8366 103.616C20.2366 104.288 18.3486 104.624 16.1726 104.624ZM32.3498 104V71.36H36.7178V104H32.3498ZM41.2091 104V79.232H45.5771V104H41.2091ZM43.3691 76.16C42.4411 76.16 41.7371 75.952 41.2571 75.536C40.7771 75.12 40.5371 74.544 40.5371 73.808C40.5371 73.04 40.7771 72.464 41.2571 72.08C41.7371 71.696 42.4411 71.504 43.3691 71.504C44.2971 71.504 45.0011 71.696 45.4811 72.08C45.9611 72.464 46.2011 73.056 46.2011 73.856C46.2011 74.56 45.9611 75.12 45.4811 75.536C45.0011 75.952 44.2971 76.16 43.3691 76.16ZM61.1565 104.624C59.2365 104.624 57.5405 104.32 56.0685 103.712C54.5965 103.072 53.3485 102.176 52.3245 101.024C51.3325 99.872 50.5805 98.512 50.0685 96.944C49.5885 95.376 49.3485 93.632 49.3485 91.712C49.3485 89.824 49.5885 88.096 50.0685 86.528C50.5805 84.928 51.3165 83.536 52.2765 82.352C53.2685 81.136 54.4845 80.208 55.9245 79.568C57.3965 78.896 59.0765 78.56 60.9645 78.56C62.6605 78.56 64.1325 78.816 65.3805 79.328C66.6605 79.808 67.7165 80.496 68.5485 81.392C69.3805 82.256 69.9885 83.248 70.3725 84.368C70.7565 85.488 70.9325 86.656 70.9005 87.872L66.8685 88.4C66.8685 87.056 66.6125 85.952 66.1005 85.088C65.5885 84.192 64.8845 83.52 63.9885 83.072C63.1245 82.592 62.1165 82.352 60.9645 82.352C60.1005 82.352 59.2365 82.512 58.3725 82.832C57.5405 83.12 56.7725 83.632 56.0685 84.368C55.3645 85.072 54.8045 86.016 54.3885 87.2C53.9725 88.352 53.7645 89.792 53.7645 91.52C53.7645 93.76 54.1005 95.584 54.7725 96.992C55.4765 98.368 56.3885 99.376 57.5085 100.016C58.6605 100.656 59.9245 100.976 61.3005 100.976C62.7725 100.976 63.9725 100.672 64.9005 100.064C65.8285 99.424 66.5005 98.592 66.9165 97.568C67.3645 96.512 67.5725 95.392 67.5405 94.208L71.6685 94.544C71.7005 96.016 71.4925 97.376 71.0445 98.624C70.6285 99.84 69.9725 100.912 69.0765 101.84C68.1805 102.736 67.0605 103.424 65.7165 103.904C64.4045 104.384 62.8845 104.624 61.1565 104.624ZM74.9123 104V71.36H79.2323V89.408C80.6403 88.992 81.9683 88.384 83.2163 87.584C84.4963 86.784 85.6323 85.888 86.6243 84.896C87.6163 83.904 88.4163 82.912 89.0243 81.92C89.6643 80.896 90.0643 79.984 90.2243 79.184H95.0723C94.8163 80.272 94.3203 81.392 93.5843 82.544C92.8803 83.696 91.9843 84.816 90.8963 85.904C89.8083 86.992 88.5763 87.952 87.2003 88.784C85.8243 89.616 84.3363 90.272 82.7363 90.752V91.136C84.7843 90.944 86.4803 91.024 87.8243 91.376C89.1683 91.728 90.2403 92.272 91.0403 93.008C91.8723 93.712 92.5123 94.56 92.9603 95.552C93.4083 96.512 93.7603 97.536 94.0163 98.624L95.3123 104H90.6083L89.8883 100.16C89.6003 98.72 89.1843 97.488 88.6403 96.464C88.0963 95.408 87.2483 94.592 86.0963 94.016C84.9763 93.44 83.3923 93.136 81.3443 93.104L79.2323 93.056V104H74.9123Z" fill="#144480"/>
<path d="M98.7773 104V72.32H109.913C111.865 72.32 113.561 72.512 115.001 72.896C116.473 73.248 117.689 73.776 118.649 74.48C119.641 75.152 120.377 75.984 120.857 76.976C121.369 77.968 121.625 79.104 121.625 80.384C121.625 81.536 121.369 82.64 120.857 83.696C120.345 84.752 119.497 85.616 118.313 86.288C117.161 86.96 115.641 87.376 113.753 87.536V87.92C116.793 88.112 119.065 88.864 120.569 90.176C122.073 91.456 122.825 93.28 122.825 95.648C122.825 97.44 122.377 98.96 121.481 100.208C120.617 101.456 119.321 102.4 117.593 103.04C115.897 103.68 113.753 104 111.161 104H98.7773ZM103.145 100.208H111.017C111.497 100.208 112.137 100.192 112.937 100.16C113.737 100.096 114.553 99.92 115.385 99.632C116.217 99.312 116.921 98.816 117.497 98.144C118.073 97.44 118.361 96.464 118.361 95.216C118.361 94.064 118.121 93.136 117.641 92.432C117.193 91.696 116.585 91.136 115.817 90.752C115.081 90.336 114.281 90.048 113.417 89.888C112.553 89.696 111.721 89.584 110.921 89.552C110.153 89.52 109.513 89.504 109.001 89.504H103.145V100.208ZM103.145 86.096H109.577C110.121 86.096 110.809 86.08 111.641 86.048C112.473 85.984 113.305 85.808 114.137 85.52C114.969 85.2 115.673 84.688 116.249 83.984C116.857 83.28 117.161 82.304 117.161 81.056C117.161 79.808 116.857 78.848 116.249 78.176C115.673 77.504 114.953 77.024 114.089 76.736C113.225 76.416 112.345 76.224 111.449 76.16C110.585 76.096 109.833 76.064 109.193 76.064H103.145V86.096ZM137.66 104.624C135.388 104.624 133.34 104.144 131.516 103.184C129.724 102.224 128.3 100.784 127.244 98.864C126.22 96.912 125.708 94.496 125.708 91.616C125.708 88.704 126.236 86.288 127.292 84.368C128.348 82.448 129.756 81.008 131.516 80.048C133.308 79.056 135.308 78.56 137.516 78.56C139.756 78.56 141.772 79.056 143.564 80.048C145.356 81.04 146.764 82.512 147.788 84.464C148.844 86.384 149.372 88.8 149.372 91.712C149.372 94.624 148.86 97.04 147.836 98.96C146.812 100.88 145.404 102.304 143.612 103.232C141.852 104.16 139.868 104.624 137.66 104.624ZM137.66 101.024C138.78 101.024 139.788 100.816 140.684 100.4C141.58 99.984 142.348 99.392 142.988 98.624C143.628 97.856 144.108 96.912 144.428 95.792C144.748 94.672 144.908 93.376 144.908 91.904C144.908 90.432 144.732 89.104 144.38 87.92C144.028 86.736 143.532 85.728 142.892 84.896C142.284 84.064 141.516 83.424 140.588 82.976C139.66 82.528 138.62 82.304 137.468 82.304C136.348 82.304 135.324 82.528 134.396 82.976C133.5 83.392 132.732 84.016 132.092 84.848C131.452 85.648 130.972 86.624 130.652 87.776C130.332 88.896 130.172 90.16 130.172 91.568C130.172 93.008 130.332 94.32 130.652 95.504C131.004 96.688 131.5 97.696 132.14 98.528C132.78 99.328 133.564 99.952 134.492 100.4C135.452 100.816 136.508 101.024 137.66 101.024ZM130.748 77.648V73.952L137.468 70.4L144.236 73.952V77.648L137.468 74.144L130.748 77.648ZM153.147 104V92.24L153.051 79.232H157.131L156.411 90.944H156.843C157.099 87.808 157.627 85.344 158.427 83.552C159.259 81.728 160.315 80.448 161.595 79.712C162.875 78.944 164.315 78.56 165.915 78.56C167.291 78.56 168.459 78.816 169.419 79.328C170.411 79.808 171.211 80.496 171.819 81.392C172.427 82.256 172.891 83.232 173.211 84.32C173.563 85.408 173.803 86.544 173.931 87.728C174.059 88.912 174.123 90.08 174.123 91.232V104H169.755V91.664C169.755 90.704 169.707 89.696 169.611 88.64C169.547 87.584 169.355 86.608 169.035 85.712C168.747 84.784 168.251 84.032 167.547 83.456C166.875 82.848 165.915 82.544 164.667 82.544C163.099 82.544 161.771 83.088 160.683 84.176C159.627 85.232 158.827 86.832 158.283 88.976C157.771 91.12 157.515 93.824 157.515 97.088V104H153.147ZM186.429 104.624C184.989 104.624 183.773 104.368 182.781 103.856C181.789 103.344 180.973 102.64 180.333 101.744C179.725 100.816 179.245 99.76 178.893 98.576C178.573 97.36 178.349 96.064 178.221 94.688C178.093 93.312 178.029 91.904 178.029 90.464V79.232H182.445V90.176C182.445 91.456 182.477 92.72 182.541 93.968C182.605 95.184 182.797 96.304 183.117 97.328C183.437 98.352 183.949 99.168 184.653 99.776C185.357 100.352 186.349 100.64 187.629 100.64C188.813 100.64 189.837 100.352 190.701 99.776C191.597 99.2 192.317 98.352 192.861 97.232C193.437 96.112 193.869 94.72 194.157 93.056C194.445 91.36 194.589 89.424 194.589 87.248V79.232H198.957V91.328L199.053 104H194.973L195.693 93.392H195.261C194.941 96.176 194.397 98.4 193.629 100.064C192.861 101.696 191.885 102.864 190.701 103.568C189.517 104.272 188.093 104.624 186.429 104.624ZM213.424 104.624C211.856 104.624 210.4 104.448 209.056 104.096C207.712 103.776 206.56 103.248 205.6 102.512C204.64 101.776 203.904 100.816 203.392 99.632C202.912 98.416 202.72 96.944 202.816 95.216L206.848 94.784C206.752 96.352 206.976 97.6 207.52 98.528C208.064 99.456 208.864 100.128 209.92 100.544C210.976 100.928 212.192 101.12 213.568 101.12C215.456 101.12 216.912 100.8 217.936 100.16C218.992 99.52 219.52 98.64 219.52 97.52C219.52 96.624 219.232 95.936 218.656 95.456C218.08 94.944 217.28 94.544 216.256 94.256C215.264 93.968 214.112 93.696 212.8 93.44C211.52 93.184 210.288 92.896 209.104 92.576C207.92 92.256 206.864 91.84 205.936 91.328C205.04 90.816 204.32 90.144 203.776 89.312C203.264 88.48 203.008 87.408 203.008 86.096C203.008 84.56 203.408 83.232 204.208 82.112C205.008 80.992 206.144 80.128 207.616 79.52C209.088 78.88 210.8 78.56 212.752 78.56C214.576 78.56 216.256 78.864 217.792 79.472C219.328 80.08 220.544 81.04 221.44 82.352C222.336 83.664 222.72 85.376 222.592 87.488L218.656 88.016C218.752 86.64 218.528 85.536 217.984 84.704C217.472 83.84 216.736 83.2 215.776 82.784C214.848 82.336 213.76 82.112 212.512 82.112C210.912 82.112 209.632 82.448 208.672 83.12C207.712 83.76 207.232 84.64 207.232 85.76C207.232 86.72 207.52 87.456 208.096 87.968C208.704 88.48 209.52 88.88 210.544 89.168C211.568 89.424 212.72 89.664 214 89.888C215.152 90.112 216.288 90.368 217.408 90.656C218.56 90.912 219.6 91.296 220.528 91.808C221.488 92.32 222.256 93.024 222.832 93.92C223.44 94.816 223.744 95.984 223.744 97.424C223.744 98.896 223.328 100.176 222.496 101.264C221.664 102.352 220.48 103.184 218.944 103.76C217.408 104.336 215.568 104.624 213.424 104.624Z" fill="#1875E9"/>
</svg>
